<?xml version="1.0" encoding="utf-8"?>
<!-- Generator: Adobe Illustrator 26.4.1, SVG Export Plug-In . SVG Version: 6.00 Build 0)  -->
<svg version="1.1" id="Capa_1" xmlns="http://www.w3.org/2000/svg" xmlns:xlink="http://www.w3.org/1999/xlink" x="0px" y="0px"
	 viewBox="0 0 752 752" style="enable-background:new 0 0 752 752;" xml:space="preserve">
<g>
	<path d="M376,539.2c-37.8,0-68.7-8.9-68.7-19.9v20.6c0,11,30.9,19.9,68.7,19.9s68.7-8.9,68.7-19.9v-20.6
		C444.7,530.3,413.8,539.2,376,539.2z"/>
	<path d="M690.6,372.3c0,15.1-39.2,26.8-87.9,26.8c-48.8,0-87.9-12.4-87.9-26.8v13c0,3.4,2.1,6.2,5.5,9.6v142.9
		c0,2.1,1.4,3.4,3.4,3.4h6.9c2.1,0,3.4-1.4,3.4-3.4v-136c9.6,3.4,22.7,6.9,37.8,8.2v113.3c0,2.1,1.4,3.4,3.4,3.4h6.9
		c2.1,0,3.4-1.4,3.4-3.4l0-112c5.5,0,11.7,0.7,17.2,0.7c8.2,0,16.5-0.7,24-1.4v153.9c0,2.1,1.4,3.4,3.4,3.4h6.9
		c2.1,0,3.4-1.4,3.4-3.4l0-155.3c13.7-2.1,25.4-4.8,34.3-8.9v137.4c0,2.1,1.4,3.4,3.4,3.4h6.9c2.1,0,3.4-1.4,3.4-3.4v-147
		c1.4-2.1,2.1-4.1,2.1-5.5L690.6,372.3z"/>
	<path d="M709.9,194.4c-1.4-1.4-3.4-2.7-5.5-2.7l-103-6.9c-3.4,0-6.2,2.1-6.9,4.8c-8.2,29.5-13.7,59.8-17.2,87.2l-0.7,3.4
		c-2.7,24.7-4.1,46.7-4.8,61.8c-33.7,4.1-57,13.7-57,25.4c0,15.1,39.2,26.8,87.9,26.8c48.8,0,87.9-12.4,87.9-26.8
		c0-2.1-0.7-4.1-2.1-5.5c0.7-25.4,3.4-96.2,22-161.4C711.2,198.5,711.2,195.7,709.9,194.4L709.9,194.4z M593.1,262.4l88.6,8.9
		c-0.7,5.5-1.4,11-2.1,16.5l-88.6-9.6C591.7,272.7,592.4,267.2,593.1,262.4L593.1,262.4z M586.2,340.7c0.7-12.4,1.4-29.5,3.4-48.8
		l88.6,8.9c-2.1,20.6-2.7,38.5-3.4,50.8c-15.8-6.9-42.6-11.7-72.1-11.7C597.2,340,591.7,340,586.2,340.7L586.2,340.7z"/>
	<path d="M61.4,372.3c0,15.1,39.2,26.8,87.9,26.8s87.9-12.4,87.9-26.8v13c0,3.4-2.1,6.2-5.5,9.6v142.9c0,2.1-1.4,3.4-3.4,3.4h-6.9
		c-2.1,0-3.4-1.4-3.4-3.4v-136c-9.6,3.4-22.7,6.9-37.8,8.2v113.3c0,2.1-1.4,3.4-3.4,3.4h-6.9c-2.1,0-3.4-1.4-3.4-3.4l0-112
		c-5.5,0-11.7,0.7-17.2,0.7c-8.2,0-16.5-0.7-24-1.4v153.9c0,2.1-1.4,3.4-3.4,3.4H115c-2.1,0-3.4-1.4-3.4-3.4l0-155.3
		c-13.7-2.1-25.4-4.8-34.3-8.9v137.4c0,2.1-1.4,3.4-3.4,3.4h-6.9c-2.1,0-3.4-1.4-3.4-3.4v-147c-1.4-2.1-2.1-4.1-2.1-5.5L61.4,372.3z
		"/>
	<path d="M41.5,199.9c18.5,65.3,21.3,136,22,161.4c-1.4,2.1-2.1,4.1-2.1,5.5c0,15.1,39.2,26.8,87.9,26.8s87.9-12.4,87.9-26.8
		c0-11.7-24-21.3-57-25.4c-0.7-15.1-2.1-37.1-4.8-61.8l-0.7-3.4c-3.4-27.5-8.9-57.7-17.2-87.2c-0.7-3.4-4.1-5.5-6.9-4.8l-103,6.9
		c-2.1,0-4.1,1.4-5.5,2.7C40.8,195.7,40.8,198.5,41.5,199.9L41.5,199.9z M161,278.2l-88.6,8.9c-0.7-5.5-1.4-11-2.1-16.5l88.6-8.9
		C159.6,267.2,160.3,272.7,161,278.2L161,278.2z M149.3,340c-30.2,0-56.3,4.8-72.1,11.7c-0.7-12.4-1.4-30.2-3.4-50.8l89.3-9.6
		c2.1,19.2,2.7,36.4,3.4,48.8L149.3,340L149.3,340z"/>
	<path d="M541.6,306.3c0-23.4-85.2-36.4-165.6-36.4s-165.6,12.4-165.6,36.4c0,2.7,1.4,5.5,3.4,7.6v8.9c0,16.5,59.8,29.5,137.4,32.3
		c11.7,55.6,5.5,114,1.4,142.2c-26.1,2.7-45.3,10.3-45.3,18.5c0,11,30.9,19.9,68.7,19.9s68.7-8.9,68.7-19.9
		c0-8.9-18.5-15.8-45.3-18.5c-4.1-28.2-10.3-86.6,1.4-142.2c77.6-2.1,137.4-15.8,137.4-32.3v-8.9
		C540.2,311.2,541.6,309.1,541.6,306.3L541.6,306.3z M376,276.8c98.2,0,158.7,17.2,158.7,29.5c0,2.7-3.4,5.5-9.6,8.9
		c-24.7,11.7-82.4,19.9-149.8,19.9c-67.3,0-125-8.2-149.8-19.9c-6.2-2.7-9.6-6.2-9.6-8.9C217.3,294,277.8,276.8,376,276.8L376,276.8
		z"/>
</g>
</svg>
