<?xml version="1.0" standalone="no"?>
<!DOCTYPE svg PUBLIC "-//W3C//DTD SVG 20010904//EN"
 "http://www.w3.org/TR/2001/REC-SVG-20010904/DTD/svg10.dtd">
<svg version="1.0" xmlns="http://www.w3.org/2000/svg"
 width="1280.000000pt" height="1280.000000pt" viewBox="0 0 1280.000000 1280.000000"
 preserveAspectRatio="xMidYMid meet">
<metadata>
Created by potrace 1.15, written by Peter Selinger 2001-2017
</metadata>
<g transform="translate(0.000000,1280.000000) scale(0.100000,-0.100000)"
fill="#000000" stroke="none">
<path d="M11298 8874 c-3 -2 -34 -8 -69 -13 -135 -18 -280 -74 -436 -167 -159
-95 -310 -262 -411 -456 -51 -98 -111 -255 -111 -294 -1 -10 -5 -50 -11 -89
-67 -444 -81 -830 -54 -1441 l6 -132 -149 -5 c-142 -4 -309 -17 -513 -37 -52
-6 -124 -12 -160 -15 -85 -7 -243 -23 -300 -30 -25 -3 -85 -10 -135 -16 -49
-6 -121 -17 -160 -25 -190 -39 -185 -34 -185 -170 0 -66 4 -105 11 -110 12 -7
10 -70 -11 -444 -5 -80 -13 -397 -19 -705 -10 -552 -27 -1046 -38 -1075 -3 -8
-9 -53 -14 -100 -15 -166 -28 -253 -40 -261 -20 -12 71 -52 118 -52 69 0 71 3
93 178 5 44 12 105 15 135 3 30 10 93 15 140 9 79 21 232 35 455 3 50 10 153
17 230 6 77 12 194 15 260 3 90 8 122 19 128 8 4 14 23 14 41 0 18 9 44 19 58
16 20 19 42 20 143 2 164 19 311 49 400 22 68 54 140 65 147 21 13 160 8 212
-7 188 -58 364 -223 456 -432 16 -37 34 -77 39 -88 29 -63 71 -226 74 -290 1
-16 5 -46 9 -65 4 -19 8 -97 10 -173 2 -149 3 -151 62 -167 20 -6 20 -13 17
-625 -1 -341 -6 -714 -9 -828 l-6 -209 -26 -10 c-25 -10 -24 -12 34 -30 71
-23 122 -18 147 14 13 18 18 43 18 108 0 47 5 103 11 125 11 40 27 256 34 460
2 61 9 160 14 220 12 125 28 352 35 500 3 55 8 137 12 182 6 78 8 82 35 92 30
10 50 40 54 80 2 14 15 82 30 151 15 69 30 142 32 163 3 20 9 40 14 43 5 3 9
17 9 32 0 26 29 114 42 127 5 6 17 -74 23 -165 9 -115 26 -336 36 -445 5 -66
12 -160 14 -210 5 -100 20 -260 31 -317 5 -31 3 -39 -12 -44 -47 -15 -48 -17
-14 -26 19 -5 39 -14 44 -19 12 -11 106 -12 122 -1 22 14 32 48 29 97 -10 141
-15 233 -20 365 -5 131 -11 238 -31 590 -4 63 -8 158 -8 210 -1 91 0 95 22 98
27 4 40 27 36 67 -1 17 -3 62 -5 102 -3 69 -2 73 26 95 64 51 220 131 275 142
19 3 46 9 60 12 59 14 156 16 207 3 77 -18 135 -75 158 -155 9 -33 20 -71 24
-85 5 -14 9 -127 10 -250 2 -139 6 -228 13 -236 6 -7 21 -13 34 -13 18 0 24
-7 28 -32 8 -49 61 -350 70 -393 4 -25 83 -348 96 -395 5 -19 19 -66 30 -104
11 -37 22 -78 25 -90 2 -11 9 -39 15 -61 6 -22 15 -57 20 -77 6 -20 18 -61 29
-90 34 -93 61 -187 61 -208 0 -17 -6 -20 -50 -20 -27 0 -50 -4 -50 -8 0 -14
141 -42 206 -42 48 0 65 4 79 20 15 17 16 25 5 72 -7 29 -16 60 -21 68 -4 8
-12 33 -18 55 -6 22 -24 87 -41 144 -17 57 -32 116 -35 130 -6 38 -44 191 -55
227 -6 17 -10 40 -10 52 0 11 -4 31 -9 44 -5 13 -14 55 -21 93 -7 39 -21 108
-32 154 -11 46 -21 100 -24 120 -2 20 -8 61 -13 91 -38 228 -46 323 -56 620
-7 220 12 588 37 735 12 69 26 164 32 215 5 42 19 112 40 198 8 34 14 63 15
65 0 1 2 9 4 17 3 8 10 42 17 75 7 33 16 71 20 85 4 14 13 45 20 70 7 25 17
61 23 80 6 19 12 40 13 45 6 27 79 233 99 280 7 17 25 64 40 105 28 78 36 98
78 190 13 30 34 84 47 120 13 36 33 88 45 115 20 47 35 92 40 125 2 8 10 38
19 65 23 68 38 142 40 191 0 22 7 48 14 57 15 18 12 346 -5 412 -22 92 -110
242 -180 306 -86 80 -290 162 -518 207 -50 10 -289 15 -297 6z m192 -163 c24
-7 23 -8 -15 -21 -22 -8 -42 -14 -45 -15 -3 0 -33 -16 -68 -35 -68 -36 -216
-174 -242 -225 -8 -16 -30 -52 -47 -80 -51 -78 -95 -204 -115 -330 -24 -156
-29 -192 -33 -225 -2 -19 -11 -89 -20 -155 -9 -66 -18 -140 -20 -165 -3 -25
-7 -65 -10 -90 -19 -152 -56 -552 -73 -781 -5 -64 -12 -121 -16 -127 -3 -6 -9
-61 -12 -123 -3 -62 -8 -117 -11 -122 -6 -10 -21 -8 -184 24 l-116 22 -13 66
c-7 36 -16 134 -20 218 -4 83 -11 156 -14 161 -3 6 -6 223 -6 484 0 378 3 494
15 578 16 104 31 181 43 210 7 19 7 18 16 60 5 19 21 62 37 95 103 218 243
359 455 461 153 72 215 92 354 110 112 14 127 14 160 5z m460 -131 c74 -53
123 -125 156 -225 22 -71 26 -269 6 -375 -25 -131 -31 -156 -41 -192 -6 -21
-15 -53 -20 -70 -4 -18 -18 -59 -30 -90 -11 -32 -30 -84 -42 -115 -11 -31 -30
-75 -41 -97 -12 -23 -21 -43 -21 -46 1 -9 -8 -34 -24 -70 -9 -19 -37 -87 -63
-150 -74 -179 -141 -343 -150 -365 -7 -19 -61 -192 -82 -265 -6 -19 -14 -45
-19 -58 -5 -13 -9 -34 -9 -47 0 -13 -4 -27 -10 -30 -5 -3 -10 -17 -10 -31 0
-14 -4 -33 -9 -42 -5 -9 -11 -30 -14 -47 -3 -16 -11 -55 -17 -85 -6 -30 -16
-86 -23 -125 -14 -76 -30 -90 -62 -55 -19 21 -18 41 17 220 9 49 21 117 31
190 6 38 47 222 56 250 5 14 14 45 21 70 45 159 143 422 216 578 24 50 44 95
44 98 0 3 13 34 29 68 16 33 41 90 56 126 15 36 36 85 47 110 11 25 27 60 35
79 79 177 98 439 45 596 -26 78 -96 191 -135 218 -7 5 -2 6 13 1 14 -3 36 -15
50 -24z m-212 -36 c62 -31 111 -90 144 -172 19 -49 22 -77 22 -202 1 -127 -2
-154 -23 -220 -26 -80 -90 -237 -148 -360 -19 -41 -44 -97 -55 -125 -11 -27
-44 -103 -74 -168 -30 -65 -54 -123 -54 -130 0 -7 -4 -17 -9 -22 -10 -11 -111
-306 -116 -340 -2 -11 -12 -47 -23 -80 -11 -33 -23 -76 -27 -95 -4 -19 -11
-53 -17 -75 -5 -22 -13 -62 -18 -90 -4 -27 -15 -90 -23 -140 -9 -49 -21 -119
-27 -155 -12 -78 -14 -88 -22 -95 -3 -3 -30 3 -59 13 -30 11 -79 27 -109 35
-30 9 -84 25 -120 35 l-65 20 0 93 c0 52 4 120 8 152 4 31 10 97 12 145 3 48
9 103 15 122 5 19 10 62 10 94 0 33 4 85 10 115 5 31 14 119 20 196 16 217 65
649 89 795 19 116 24 137 48 214 58 189 184 354 328 428 59 31 83 36 161 37
57 1 80 -4 122 -25z m528 -449 c15 -37 1 -265 -16 -265 -10 0 -17 130 -12 213
4 63 16 85 28 52z m-3358 -2367 c6 -6 12 -15 12 -20 0 -16 -59 -70 -70 -63
-11 7 -14 88 -3 98 8 8 42 -1 61 -15z m2528 -75 c-4 -32 -9 -70 -10 -85 -2
-27 -16 -52 -16 -30 0 6 -14 34 -30 63 -25 41 -28 54 -19 66 10 11 59 38 78
42 2 1 1 -25 -3 -56z m-1836 -143 c19 -6 96 -24 170 -41 74 -16 138 -33 142
-37 12 -12 9 -321 -5 -422 l-12 -95 -14 45 c-7 25 -19 59 -27 75 -7 17 -16 42
-19 58 -4 15 -11 30 -16 33 -5 3 -9 14 -9 25 0 10 -4 19 -10 19 -5 0 -10 7
-10 15 0 38 -139 239 -202 294 -16 13 -28 28 -28 32 0 11 -2 11 40 -1z m590
-123 c0 -13 4 -27 9 -32 5 -6 11 -32 14 -60 6 -59 31 -177 41 -193 4 -6 -4
-33 -17 -59 -14 -26 -35 -79 -48 -118 -12 -38 -27 -74 -31 -80 -9 -10 -10 527
-1 551 8 23 33 16 33 -9z"/>
<path d="M1305 8860 c-44 -4 -91 -11 -105 -15 -291 -83 -365 -131 -443 -290
-46 -93 -73 -247 -63 -355 21 -215 29 -249 107 -495 66 -205 64 -199 108 -298
12 -27 36 -83 52 -125 17 -42 39 -95 49 -118 35 -76 101 -250 115 -304 3 -8 9
-31 14 -50 5 -19 21 -73 36 -120 23 -75 30 -106 51 -208 3 -13 12 -49 20 -80
14 -53 23 -98 45 -232 12 -74 27 -184 34 -245 3 -27 11 -79 16 -115 21 -133
28 -262 29 -530 0 -245 -11 -521 -25 -590 -3 -14 -10 -72 -16 -130 -13 -129
-26 -228 -38 -300 -25 -152 -31 -181 -46 -255 -10 -44 -19 -89 -21 -100 -5
-36 -21 -110 -64 -295 -19 -81 -32 -147 -35 -172 -1 -16 -7 -40 -13 -55 -12
-35 -33 -123 -37 -159 -4 -40 26 -64 80 -64 47 0 107 20 119 38 4 6 11 48 17
94 5 46 14 97 19 113 5 17 11 44 14 60 12 66 17 91 26 125 23 87 72 302 76
335 2 11 14 74 28 140 14 66 30 147 36 180 5 33 15 85 21 115 5 30 12 70 14
89 2 19 9 57 14 85 5 28 15 86 22 130 13 75 15 79 56 108 l43 29 -1 243 c0
133 3 255 7 271 14 56 81 141 145 184 67 45 82 47 254 42 136 -4 128 4 120
-109 -4 -54 -10 -106 -12 -117 -3 -11 -7 -66 -10 -122 -6 -101 -5 -102 22
-127 34 -31 35 -13 -20 -416 -16 -122 -34 -275 -40 -350 -4 -49 -15 -130 -41
-310 -37 -254 -36 -284 11 -296 37 -9 111 4 128 24 8 9 17 44 21 77 3 33 10
92 16 130 5 39 12 90 15 115 6 50 21 154 35 245 6 33 12 78 15 100 2 22 9 69
14 105 6 36 15 94 20 130 6 36 12 76 15 90 17 81 49 272 52 315 2 28 7 73 12
100 7 48 8 50 42 53 83 6 87 11 91 117 1 28 6 58 11 68 9 17 12 16 46 -9 59
-43 120 -112 179 -202 56 -84 124 -236 137 -302 14 -78 26 -180 32 -270 7
-103 15 -130 42 -130 10 0 27 -7 38 -15 18 -12 21 -26 23 -97 1 -46 6 -184 12
-308 17 -407 28 -791 29 -1014 2 -244 7 -269 59 -279 36 -8 91 1 113 17 16 12
18 67 24 667 4 360 8 746 8 859 1 199 2 206 24 228 12 12 22 28 22 35 1 6 3
28 5 47 3 19 10 80 16 135 19 178 26 239 33 270 8 42 27 106 37 130 4 11 15
42 24 69 30 94 102 218 175 302 74 85 233 176 310 178 30 1 37 -4 51 -34 61
-127 71 -182 71 -424 0 -95 3 -177 6 -182 4 -5 21 -14 37 -20 29 -10 30 -11
27 -68 -1 -38 3 -67 12 -80 16 -25 22 -72 35 -286 25 -378 39 -567 51 -655 5
-38 12 -90 16 -115 13 -100 24 -178 33 -240 6 -36 13 -93 17 -127 4 -35 12
-68 20 -73 7 -6 36 -10 65 -8 42 2 55 8 70 28 16 23 17 37 9 155 -6 72 -14
155 -20 185 -27 148 -37 331 -45 830 -8 431 -29 985 -44 1150 -4 46 -6 165 -5
264 1 99 -2 190 -7 203 -16 41 -80 60 -289 83 -52 6 -113 13 -135 15 -49 6
-267 21 -510 35 -99 5 -234 14 -300 20 -66 5 -214 8 -328 7 l-208 -3 -6 24
c-3 14 0 48 6 76 18 77 26 755 11 946 -17 231 -33 376 -49 445 -5 22 -15 67
-21 100 -44 217 -161 427 -330 593 -155 153 -316 253 -496 310 -111 35 -261
47 -409 32z m350 -192 c159 -53 308 -149 440 -283 108 -109 180 -222 238 -375
21 -57 29 -84 44 -150 5 -24 20 -137 33 -245 15 -123 14 -701 -1 -829 -13
-115 -30 -301 -35 -389 -5 -88 -13 -103 -66 -110 -24 -3 -54 -8 -68 -11 -14
-4 -41 -9 -61 -12 -36 -6 -37 -6 -43 32 -15 102 -30 249 -46 464 -17 229 -21
266 -30 300 -6 19 -10 58 -10 85 0 28 -4 66 -9 85 -5 19 -12 76 -16 125 -8
114 -34 381 -51 520 -3 28 -15 84 -26 125 -11 41 -21 82 -22 90 -7 50 -33 115
-98 245 -59 119 -153 230 -250 296 -31 22 -61 39 -65 39 -4 0 -19 10 -33 21
l-25 21 55 -7 c30 -3 96 -20 145 -37z m-609 -71 c-80 -98 -110 -206 -109 -397
0 -134 5 -173 38 -300 5 -22 32 -84 74 -175 21 -44 51 -109 66 -145 16 -36 52
-115 82 -177 29 -61 53 -114 53 -117 0 -4 9 -28 21 -54 30 -67 83 -210 108
-292 6 -19 21 -69 35 -110 36 -112 54 -184 61 -243 2 -15 13 -69 25 -120 11
-50 25 -111 30 -135 6 -23 10 -65 10 -93 0 -28 5 -59 10 -70 6 -11 10 -50 8
-87 l-3 -67 -13 75 c-7 41 -17 91 -22 110 -5 19 -14 62 -20 95 -15 79 -50 213
-68 265 -3 8 -7 22 -8 30 -8 57 -90 308 -135 415 -17 39 -34 79 -39 90 -4 11
-55 133 -113 270 -104 247 -161 397 -177 465 -4 19 -13 51 -20 70 -6 19 -14
48 -16 63 -2 16 -6 33 -9 38 -15 23 -35 185 -35 277 0 107 13 181 38 220 8 12
11 22 6 22 -13 0 57 70 96 95 54 37 65 29 26 -18z m337 -23 c201 -52 396 -343
443 -664 30 -206 43 -314 49 -410 9 -125 27 -301 50 -475 26 -200 34 -279 40
-380 3 -55 7 -120 9 -145 2 -25 7 -99 11 -166 l8 -120 -74 -24 c-41 -12 -105
-36 -143 -51 -38 -16 -72 -26 -76 -24 -9 5 -22 99 -21 139 1 17 -3 53 -9 80
-51 260 -64 318 -76 366 -9 30 -17 64 -19 75 -3 11 -9 29 -13 40 -11 25 -32
88 -37 112 -5 28 -35 115 -51 150 -8 17 -14 33 -14 36 0 2 -8 22 -17 43 -9 22
-18 44 -19 49 -2 11 -27 69 -55 131 -10 22 -28 65 -39 95 -12 30 -28 69 -36
87 -8 17 -21 49 -30 70 -9 20 -26 57 -39 82 -12 25 -39 88 -60 140 -21 52 -41
100 -45 105 -33 46 -64 363 -42 423 5 15 16 47 23 72 26 90 85 152 163 170 47
12 53 11 119 -6z m2787 -2770 c0 -20 -3 -34 -7 -32 -49 23 -63 32 -63 39 0 10
53 37 63 32 4 -2 7 -20 7 -39z m-2507 -73 c6 -6 0 -21 -16 -40 -14 -17 -28
-40 -32 -51 -13 -41 -25 -18 -25 49 l0 70 32 -10 c17 -5 36 -13 41 -18z m192
-56 c0 -11 -66 -35 -78 -28 -4 2 -2 13 4 24 8 15 19 19 42 17 18 -2 32 -7 32
-13z m1685 -94 c0 -6 -5 -13 -10 -16 -38 -23 -160 -245 -195 -352 -10 -29 -21
-53 -25 -53 -9 0 -22 165 -24 289 l-1 74 50 14 c28 8 61 17 75 20 14 2 32 7
40 10 8 3 26 8 40 10 13 2 27 6 29 9 8 7 21 4 21 -5z m-681 -71 c57 -6 125
-10 152 -10 l49 0 0 -260 c0 -143 -2 -260 -4 -260 -2 0 -19 37 -37 83 -61 151
-202 336 -320 418 -32 23 -59 44 -59 46 0 2 26 1 58 -2 31 -3 104 -10 161 -15z"/>
<path d="M6190 8033 c-25 -1 -119 -8 -210 -13 -164 -11 -524 -52 -610 -70 -25
-5 -85 -16 -135 -25 -49 -9 -121 -23 -160 -31 -38 -8 -80 -16 -92 -18 -52 -10
-179 -49 -188 -57 -5 -5 -16 -9 -25 -9 -29 0 -194 -91 -246 -135 -92 -79 -138
-210 -99 -285 8 -16 54 -63 100 -104 93 -81 215 -149 368 -206 l87 -33 0 -36
c0 -20 5 -101 10 -181 13 -181 14 -1056 2 -1130 -5 -30 -14 -75 -20 -100 -26
-109 -34 -199 -22 -273 12 -74 9 -212 -9 -367 -5 -47 -13 -114 -16 -150 -3
-36 -10 -92 -15 -125 -5 -33 -14 -100 -20 -150 -6 -49 -13 -103 -16 -120 -2
-16 -9 -64 -14 -105 -5 -41 -14 -106 -19 -145 -5 -38 -14 -108 -21 -155 -6
-47 -13 -92 -17 -100 -3 -8 -10 -42 -14 -75 -4 -33 -10 -73 -12 -90 -3 -16 -8
-52 -12 -80 -3 -27 -13 -70 -20 -95 -8 -25 -17 -63 -20 -85 -12 -76 -21 -122
-55 -265 -5 -19 -16 -73 -25 -120 -10 -47 -26 -116 -36 -155 -24 -90 -24 -107
4 -133 18 -17 36 -22 73 -22 68 0 84 14 89 78 3 29 10 62 16 75 11 19 19 45
34 111 2 10 12 44 21 75 18 62 31 108 44 161 18 74 48 187 65 245 10 33 19 69
20 80 1 11 5 38 9 60 7 41 12 65 47 245 25 124 38 202 43 250 3 19 11 73 19
120 9 47 18 112 22 145 4 33 9 71 12 85 6 32 21 155 29 240 7 66 26 110 49
110 28 0 75 33 81 57 7 26 0 148 -11 193 -7 31 -8 266 0 300 3 14 8 41 12 60
7 40 31 100 39 100 16 0 94 -54 125 -87 129 -134 276 -442 323 -678 55 -270
66 -334 66 -372 0 -43 19 -94 46 -123 l23 -25 -9 -210 c-5 -115 -14 -286 -19
-380 -5 -93 -10 -177 -10 -185 -1 -8 -5 -112 -11 -230 -6 -118 -14 -309 -20
-425 -11 -254 -20 -398 -40 -640 -5 -60 -10 -166 -11 -234 -3 -143 2 -151 81
-151 93 0 95 4 120 335 16 203 28 327 35 365 6 33 13 97 35 335 5 55 11 123
14 150 3 28 10 100 15 160 34 359 35 372 50 780 5 121 12 228 16 238 8 20 36
37 60 37 9 0 29 9 45 20 30 22 33 34 49 265 11 144 31 240 68 325 60 136 69
149 181 278 69 78 92 89 92 44 0 -40 27 -60 85 -64 l50 -3 7 -125 c3 -69 11
-215 17 -325 6 -110 13 -234 16 -275 14 -204 26 -408 35 -630 11 -266 27 -450
40 -464 5 -5 6 -15 3 -22 -5 -14 39 -64 58 -64 5 0 9 7 9 16 0 11 8 14 32 12
59 -6 60 0 54 437 -4 215 -11 541 -16 725 -5 184 -11 420 -14 524 l-5 188 26
22 c18 16 26 34 29 66 2 25 8 83 12 129 l7 83 50 20 c33 13 63 18 88 15 21 -3
65 2 98 10 45 11 67 12 87 4 15 -6 59 -18 98 -26 129 -29 245 -141 290 -280
16 -51 19 -83 16 -225 -2 -91 -5 -212 -5 -270 l-2 -105 47 -3 c58 -4 67 -17
79 -112 14 -104 27 -202 34 -240 3 -19 10 -64 16 -100 6 -36 15 -78 19 -95 8
-28 14 -63 27 -160 3 -22 9 -44 14 -50 5 -5 9 -20 9 -33 0 -13 6 -47 14 -75
18 -67 49 -206 52 -232 1 -11 8 -45 14 -75 6 -30 13 -68 16 -85 3 -16 9 -39
14 -50 11 -26 37 -113 43 -145 3 -14 17 -63 31 -110 15 -47 28 -94 31 -105 2
-11 9 -36 14 -55 5 -19 19 -69 30 -110 11 -41 27 -97 36 -125 18 -57 23 -74
33 -130 7 -35 11 -40 42 -47 39 -8 119 0 136 13 13 10 11 43 -6 104 -6 22 -14
60 -19 85 -5 25 -21 90 -35 145 -15 55 -29 111 -31 125 -3 14 -12 57 -21 95
-8 39 -20 90 -25 115 -16 73 -46 229 -53 270 -2 14 -14 66 -26 115 -12 50 -23
106 -25 125 -2 19 -9 62 -15 95 -6 33 -15 87 -20 120 -5 33 -16 98 -25 145
-25 125 -34 180 -40 225 -3 22 -10 60 -15 85 -16 81 -38 240 -69 515 -6 50
-13 104 -15 120 -3 17 -12 102 -21 190 -9 88 -18 180 -21 204 -3 24 -7 75 -9
115 -4 93 -21 365 -34 541 -21 291 -38 921 -27 996 l7 45 77 23 c233 68 398
147 489 236 46 45 64 71 73 105 16 61 15 101 -5 139 -161 312 -1114 547 -2190
539 -126 -1 -250 -3 -275 -5z m-907 -1082 c147 -39 343 -73 527 -92 63 -6 123
-16 133 -21 15 -8 17 -31 17 -259 0 -191 -3 -250 -12 -253 -7 -2 -71 -13 -143
-24 -71 -12 -141 -24 -155 -28 -14 -3 -44 -10 -66 -14 -39 -8 -108 -29 -219
-67 -27 -9 -63 -25 -80 -35 -16 -10 -33 -18 -36 -18 -11 0 -21 70 -20 149 1
99 -30 530 -45 634 -8 56 -7 56 99 28z m2538 -22 c-2 -8 -6 -193 -9 -411 -5
-425 -4 -418 -53 -380 -49 38 -117 70 -229 105 -138 44 -281 72 -480 96 l-55
6 0 245 0 245 55 7 c30 4 114 14 185 23 234 27 424 54 525 74 53 10 66 8 61
-10z m-1037 -272 c0 -89 -2 -191 -5 -227 l-4 -65 -265 -7 c-146 -4 -283 -9
-305 -10 l-40 -3 -6 210 c-3 116 -9 218 -13 228 -19 41 -14 42 320 39 l319 -2
-1 -163z m-17 -461 c3 -5 6 -28 5 -52 0 -24 -1 -132 -1 -239 -1 -120 -5 -195
-11 -195 -5 0 -13 12 -16 28 -10 41 -62 140 -106 204 -47 67 -155 152 -253
199 -76 36 -75 36 -105 38 -11 0 -20 5 -20 11 0 16 497 23 507 6z m433 -31
c30 -3 64 -11 75 -15 11 -5 36 -11 55 -12 44 -4 38 -19 -14 -37 -95 -32 -188
-126 -247 -251 -17 -36 -35 -73 -40 -82 -5 -10 -9 -25 -9 -33 0 -8 -4 -15 -8
-15 -5 0 -12 100 -15 223 -5 178 -3 224 8 232 12 10 56 8 195 -10z m-1650 -85
c0 -5 -5 -10 -11 -10 -17 0 -99 -60 -156 -113 -43 -41 -55 -47 -71 -38 -32 17
-36 43 -10 64 32 25 124 70 178 86 63 19 65 19 68 20 1 1 2 -3 2 -9z m694 -40
c38 0 133 -46 187 -92 64 -53 113 -114 154 -191 27 -52 31 -73 15 -79 -17 -5
-399 10 -410 17 -11 7 -15 347 -4 358 4 3 15 2 25 -3 10 -6 25 -10 33 -10z
m-295 -9 c11 -7 11 -23 2 -91 -6 -46 -11 -115 -11 -153 l0 -70 -37 7 c-21 4
-63 11 -93 16 -166 29 -330 76 -330 96 0 16 105 96 166 127 47 24 97 38 224
65 61 13 63 13 79 3z m1530 -62 c67 -12 181 -61 181 -79 0 -13 -75 -60 -96
-60 -9 0 -30 -6 -47 -14 -29 -13 -97 -36 -122 -42 -5 -1 -32 -7 -60 -13 -27
-5 -71 -16 -96 -24 -64 -20 -76 -10 -51 39 46 91 163 204 211 204 8 0 44 -5
80 -11z m325 -221 c3 -13 8 -68 11 -123 4 -55 9 -129 12 -165 l5 -64 -65 57
c-39 34 -88 66 -121 78 -31 12 -56 25 -56 29 0 7 -86 27 -140 32 -40 5 -26 21
32 38 29 9 73 26 98 38 25 12 50 22 55 22 6 0 39 18 75 40 75 46 88 48 94 18z
m-2124 -153 c41 -9 84 -19 95 -21 11 -3 52 -8 90 -12 l70 -7 -1 -115 c-2 -154
-14 -483 -18 -487 -2 -2 -13 25 -25 59 -12 35 -31 86 -43 115 -11 29 -19 53
-18 55 1 2 -26 57 -60 123 -63 123 -129 224 -184 284 -36 39 -46 38 94 6z
m893 -85 l68 0 -3 -52 c-3 -50 -5 -54 -48 -82 -104 -68 -257 -251 -330 -396
-29 -56 -70 -170 -70 -192 0 -9 -4 -19 -9 -23 -9 -5 -4 715 5 744 4 12 31 13
162 8 86 -4 188 -7 225 -7z"/>
</g>
</svg>
