<?xml version="1.0" encoding="UTF-8"?>
<svg width="752pt" height="752pt" version="1.1" viewBox="0 0 752 752" xmlns="http://www.w3.org/2000/svg">
 <g>
  <path d="m376 488.24c-26.047 0-47.359-6.1562-47.359-13.734v14.207c0 7.5781 21.312 13.734 47.359 13.734s47.359-6.1562 47.359-13.734v-14.207c0 7.5781-21.312 13.734-47.359 13.734z"/>
  <path d="m592.9 373.16c0 10.418-26.992 18.469-60.617 18.469s-60.617-8.5234-60.617-18.469v8.9961c0 2.3672 1.4219 4.2617 3.7891 6.6289v98.504c0 1.4219 0.94531 2.3672 2.3672 2.3672h4.7344c1.4219 0 2.3672-0.94531 2.3672-2.3672v-93.766c6.6289 2.3672 15.629 4.7344 26.047 5.6836v78.141c0 1.4219 0.94531 2.3672 2.3672 2.3672h4.7344c1.4219 0 2.3672-0.94531 2.3672-2.3672l0.003906-77.195c3.7891 0 8.0508 0.47266 11.84 0.47266 5.6836 0 11.367-0.47266 16.574-0.94531v106.08c0 1.4219 0.94531 2.3672 2.3672 2.3672h4.7344c1.4219 0 2.3672-0.94531 2.3672-2.3672l0.003906-107.03c9.4727-1.4219 17.523-3.3164 23.68-6.1562v94.715c0 1.4219 0.94531 2.3672 2.3672 2.3672h4.7344c1.4219 0 2.3672-0.94531 2.3672-2.3672v-101.35c0.94531-1.4219 1.4219-2.8398 1.4219-3.7891z"/>
  <path d="m606.16 250.5c-0.94531-0.94531-2.3672-1.8945-3.7891-1.8945l-71.039-4.7344c-2.3672 0-4.2617 1.4219-4.7344 3.3164-5.6836 20.363-9.4727 41.203-11.84 60.145l-0.47266 2.3633c-1.8945 17.051-2.8398 32.203-3.3164 42.621-23.207 2.8398-39.309 9.4727-39.309 17.523 0 10.418 26.992 18.469 60.617 18.469s60.617-8.5234 60.617-18.469c0-1.4219-0.47266-2.8398-1.4219-3.7891 0.47266-17.523 2.3672-66.301 15.156-111.29 0.48047-1.418 0.48047-3.3125-0.46875-4.2578zm-80.508 46.883 61.094 6.1562c-0.47266 3.7891-0.94531 7.5781-1.4219 11.367l-61.094-6.6289c0.47656-3.7891 0.94922-7.5781 1.4219-10.895zm-4.7344 53.988c0.47266-8.5234 0.94531-20.363 2.3672-33.625l61.094 6.1562c-1.4219 14.207-1.8945 26.52-2.3672 35.047-10.891-4.7344-29.363-8.0508-49.727-8.0508-3.7891 0-7.5781 0-11.367 0.47266z"/>
  <path d="m159.1 373.16c0 10.418 26.992 18.469 60.617 18.469s60.617-8.5234 60.617-18.469v8.9961c0 2.3672-1.4219 4.2617-3.7891 6.6289v98.504c0 1.4219-0.94531 2.3672-2.3672 2.3672h-4.7344c-1.4219 0-2.3672-0.94531-2.3672-2.3672v-93.766c-6.6289 2.3672-15.629 4.7344-26.047 5.6836v78.141c0 1.4219-0.94531 2.3672-2.3672 2.3672h-4.7344c-1.4219 0-2.3672-0.94531-2.3672-2.3672l-0.003906-77.195c-3.7891 0-8.0508 0.47266-11.84 0.47266-5.6836 0-11.367-0.47266-16.574-0.94531v106.08c0 1.4219-0.94531 2.3672-2.3672 2.3672h-4.7344c-1.4219 0-2.3672-0.94531-2.3672-2.3672l-0.003906-107.03c-9.4727-1.4219-17.523-3.3164-23.68-6.1562v94.715c0 1.4219-0.94531 2.3672-2.3672 2.3672h-4.7344c-1.4219 0-2.3672-0.94531-2.3672-2.3672v-101.35c-0.94531-1.4219-1.4219-2.8398-1.4219-3.7891z"/>
  <path d="m145.37 254.29c12.785 44.988 14.68 93.766 15.156 111.29-0.94531 1.4219-1.4219 2.8398-1.4219 3.7891 0 10.418 26.992 18.469 60.617 18.469s60.617-8.5234 60.617-18.469c0-8.0508-16.574-14.68-39.309-17.523-0.47266-10.418-1.4219-25.574-3.3164-42.621l-0.47266-2.3672c-2.3672-18.941-6.1562-39.781-11.84-60.145-0.47266-2.3672-2.8398-3.7891-4.7344-3.3164l-71.039 4.7344c-1.4219 0-2.8398 0.94531-3.7891 1.8945-0.94141 1.4219-0.94141 3.3164-0.46875 4.2656zm82.402 53.988-61.09 6.1562c-0.47266-3.7891-0.94531-7.5781-1.4219-11.367l61.094-6.1562c0.47266 3.7891 0.94531 7.5781 1.418 11.367zm-8.0508 42.621c-20.836 0-38.832 3.3164-49.727 8.0508-0.47266-8.5234-0.94531-20.84-2.3672-35.047l61.566-6.6289c1.4219 13.262 1.8945 25.102 2.3672 33.625h-11.84z"/>
  <path d="m490.13 327.7c0-16.102-58.723-25.102-114.13-25.102s-114.13 8.5234-114.13 25.102c0 1.8945 0.94531 3.7891 2.3672 5.2109v6.1562c0 11.367 41.203 20.363 94.715 22.258 8.0508 38.359 3.7891 78.613 0.94531 98.031-17.992 1.8945-31.25 7.1055-31.25 12.785 0 7.5781 21.312 13.734 47.359 13.734s47.359-6.1562 47.359-13.734c0-6.1562-12.785-10.891-31.258-12.785-2.8398-19.418-7.1055-59.672 0.94531-98.031 53.516-1.4219 94.715-10.891 94.715-22.258v-6.1562c1.4219-1.8945 2.3672-3.3164 2.3672-5.2109zm-114.13-20.363c67.723 0 109.4 11.84 109.4 20.363 0 1.8945-2.3672 3.7891-6.6289 6.1562-17.051 8.0508-56.828 13.734-103.24 13.734-46.41 0-86.191-5.6836-103.24-13.734-4.2617-1.8945-6.6289-4.2617-6.6289-6.1562 0.94922-8.5234 42.625-20.363 110.34-20.363z"/>
 </g>
</svg>
