<?xml version="1.0" encoding="utf-8"?>
<!-- Generator: Adobe Illustrator 26.4.1, SVG Export Plug-In . SVG Version: 6.00 Build 0)  -->
<svg version="1.1" id="Capa_1" xmlns="http://www.w3.org/2000/svg" xmlns:xlink="http://www.w3.org/1999/xlink" x="0px" y="0px"
	 viewBox="0 0 752 752" enable-background="new 0 0 752 752" xml:space="preserve">
<g>
	<path d="M375.999,539.223c-37.783,0-68.698-8.93-68.698-19.922v20.608c0,10.993,30.915,19.922,68.698,19.922
		s68.698-8.93,68.698-19.922v-20.608C444.696,530.294,413.782,539.223,375.999,539.223z"/>
	<path d="M690.628,372.291c0,15.112-39.154,26.791-87.929,26.791c-48.776,0-87.929-12.364-87.929-26.791v13.049
		c0,3.434,2.063,6.182,5.496,9.616v142.887c0,2.063,1.371,3.434,3.434,3.434h6.868c2.063,0,3.434-1.371,3.434-3.434V401.829
		c9.616,3.434,22.671,6.868,37.783,8.244v113.349c0,2.063,1.371,3.434,3.434,3.434h6.868c2.063,0,3.434-1.371,3.434-3.434
		l0.006-111.977c5.496,0,11.678,0.686,17.175,0.686c8.245,0,16.489-0.686,24.042-1.371v153.877c0,2.063,1.371,3.434,3.434,3.434
		h6.868c2.062,0,3.434-1.371,3.434-3.434l0.006-155.255c13.741-2.063,25.418-4.811,34.35-8.93v137.391
		c0,2.063,1.371,3.434,3.434,3.434h6.868c2.063,0,3.434-1.371,3.434-3.434V390.828c1.371-2.063,2.063-4.119,2.063-5.496
		L690.628,372.291z"/>
	<path d="M709.863,194.364c-1.371-1.371-3.434-2.748-5.496-2.748l-103.047-6.868c-3.434,0-6.182,2.063-6.868,4.811
		c-8.245,29.538-13.741,59.768-17.175,87.245l-0.686,3.428c-2.748,24.734-4.119,46.713-4.811,61.825
		c-33.664,4.119-57.021,13.741-57.021,25.418c0,15.112,39.154,26.791,87.929,26.791c48.776,0,87.929-12.364,87.929-26.791
		c0-2.063-0.686-4.119-2.063-5.496c0.686-25.418,3.434-96.174,21.985-161.434c0.697-2.057,0.697-4.805-0.68-6.176L709.863,194.364z
		 M593.08,262.371l88.621,8.93c-0.686,5.496-1.371,10.993-2.063,16.489l-88.621-9.616c0.691-5.496,1.377-10.993,2.063-15.804
		V262.371z M586.212,340.685c0.686-12.364,1.371-29.538,3.434-48.776l88.621,8.93c-2.063,20.608-2.748,38.469-3.434,50.838
		c-15.798-6.868-42.593-11.678-72.133-11.678C597.204,339.999,591.708,339.999,586.212,340.685L586.212,340.685z"/>
	<path d="M61.369,372.291c0,15.112,39.154,26.791,87.929,26.791s87.929-12.364,87.929-26.791v13.049
		c0,3.434-2.063,6.182-5.496,9.616v142.887c0,2.063-1.371,3.434-3.434,3.434h-6.868c-2.063,0-3.434-1.371-3.434-3.434V401.829
		c-9.616,3.434-22.671,6.868-37.783,8.244v113.349c0,2.063-1.371,3.434-3.434,3.434h-6.868c-2.063,0-3.434-1.371-3.434-3.434
		l-0.006-111.977c-5.496,0-11.678,0.686-17.175,0.686c-8.244,0-16.489-0.686-24.042-1.371v153.877c0,2.063-1.371,3.434-3.434,3.434
		h-6.868c-2.063,0-3.434-1.371-3.434-3.434l-0.006-155.255c-13.741-2.063-25.418-4.811-34.35-8.93v137.391
		c0,2.063-1.371,3.434-3.434,3.434h-6.868c-2.063,0-3.434-1.371-3.434-3.434V390.828c-1.371-2.063-2.063-4.119-2.063-5.496
		L61.369,372.291z"/>
	<path d="M41.453,199.862c18.546,65.258,21.294,136.014,21.985,161.434c-1.371,2.063-2.063,4.119-2.063,5.496
		c0,15.112,39.154,26.791,87.929,26.791s87.929-12.364,87.929-26.791c0-11.678-24.042-21.294-57.021-25.418
		c-0.686-15.112-2.063-37.097-4.811-61.825l-0.686-3.434c-3.434-27.475-8.93-57.705-17.175-87.245
		c-0.686-3.434-4.119-5.496-6.868-4.811l-103.047,6.868c-2.063,0-4.119,1.371-5.496,2.748c-1.366,2.063-1.366,4.811-0.68,6.188
		L41.453,199.862z M160.983,278.175l-88.616,8.93c-0.686-5.496-1.371-10.993-2.063-16.489l88.621-8.93
		C159.612,267.183,160.297,272.679,160.983,278.175L160.983,278.175z M149.305,340c-30.224,0-56.329,4.811-72.133,11.678
		c-0.686-12.364-1.371-30.23-3.434-50.838l89.306-9.616c2.063,19.237,2.748,36.412,3.434,48.776h-17.175L149.305,340z"/>
	<path d="M541.552,306.348c0-23.357-85.182-36.412-165.554-36.412S210.445,282.3,210.445,306.348c0,2.748,1.371,5.496,3.434,7.559
		v8.93c0,16.489,59.768,29.538,137.391,32.287c11.678,55.643,5.496,114.034,1.371,142.201c-26.099,2.748-45.33,10.307-45.33,18.546
		c0,10.993,30.915,19.922,68.698,19.922s68.698-8.93,68.698-19.922c0-8.93-18.546-15.798-45.342-18.546
		c-4.119-28.167-10.307-86.559,1.371-142.201c77.629-2.063,137.391-15.798,137.391-32.287v-8.93
		c2.063-2.748,3.434-4.811,3.434-7.559H541.552z M375.999,276.81c98.237,0,158.693,17.175,158.693,29.538
		c0,2.748-3.434,5.496-9.616,8.93c-24.734,11.678-82.433,19.922-149.757,19.922c-67.321,0-125.026-8.244-149.757-19.922
		c-6.182-2.748-9.616-6.182-9.616-8.93c1.377-12.364,61.831-29.538,160.056-29.538H375.999z"/>
</g>
</svg>
