<?xml version="1.0" encoding="UTF-8"?>
<svg >
 <g>
  <path d="m565.43 418.07v-3.6289c0-2.9219-6.8438-5.2891-15.285-5.2891h-29.73c9.0547-0.082032 16.305-0.80859 16.301-1.6055-0.003906-0.81641-7.543-1.5352-16.852-1.4922l1.2852-32.395c9.3906-1.3359 16.605-9.8594 16.555-19.617 0-0.20312-0.019531-1.0508-0.027343-1.4727l-0.039063 0.30859c-0.10547-1.5898-0.38281-2.25-0.85156-3.7109l-7.0664-20.188-22.871 0.46875-6.8633 20.598c-0.44922 1.4688-0.70703 3.7031-0.80078 5.293l-0.039062 1.2891c-0.007813-0.14844-0.015626-0.25391-0.015626-0.12891 0 0.042969 0.019532 0.085938 0.019532 0.12891l-0.019532 0.42969h0.046876c-0.007813 0-0.019532-0.24609-0.027344-0.42578 0 0.14844 0.039062 0.42578 0.046875 0.42578h-0.019531l0.019531 0.039062c0.38281 10.309 8.8789 17.254 19.32 17.195-0.64844 0.003906-1.2852-0.023438-1.9141-0.085938l1.6094 32.062c-8.6211 0.10938-15.371 0.76172-15.367 1.5234 0.003906 0.73828 6.2031 1.2852 14.281 1.3555h-267.35c8.0859-0.070313 14.277-0.61719 14.281-1.3555 0-0.76172-6.7422-1.4141-15.367-1.5234l1.6055-32.062c-0.62891 0.0625-1.2695 0.089844-1.9141 0.085938 10.441 0.058593 18.938-6.8867 19.32-17.195l0.023437-0.039062h-0.019531c0.003907-0.14844 0.042969-0.27344 0.046875-0.42188-0.007812 0.17578-0.019531 0.42188-0.027344 0.42188h0.042969l-0.015625-0.42578c0-0.046874 0.015625-0.085937 0.015625-0.12891 0-0.125-0.003906-0.019531-0.015625 0.12891l-0.042968-1.2891c-0.089844-1.5898-0.34766-3.8281-0.79688-5.293l-6.8633-20.598-22.879-0.46875-7.0703 20.188c-0.46484 1.4648-0.74219 2.1211-0.84766 3.7109l-0.03125-0.30859c-0.011718 0.42188-0.03125 1.2617-0.03125 1.4727-0.046875 9.7617 7.1641 18.281 16.562 19.617l1.2852 32.395c-9.3125-0.042969-16.852 0.68359-16.852 1.4922-0.003906 0.79688 7.2461 1.5234 16.301 1.6055h-35.164c-8.4414-0.003906-15.285 2.3633-15.285 5.2852v3.6289c0 2.9219 6.8438 5.2891 15.285 5.2891h107.85v170.49h123.13v-170.49h107.84c8.4414 0 15.285-2.3672 15.285-5.2891zm-61.914-61.352 0.003907-0.1875c0.003906 0.066406 0.003906 0.125 0.003906 0.1875zm0.046875 0c-0.003906-0.11719-0.039062-0.22656-0.039062-0.34766l0.027344-1.0859c0.070312-1.2852 0.28516-4.0508 0.64062-5.2344l5.5312-16.387 18.422-0.1875 5.6836 16.059c0.37891 1.1797 0.60156 2.0156 0.6875 3.2969l0.027344-0.26562c0.007813 0.46094 0.027344 1.4219 0.027344 1.5977 0 0.042969-0.015625 0.085938-0.015625 0.125zm-240.18 0h-0.007813c0-0.066406 0.003906-0.125 0.003906-0.1875zm-31.035-2.4258c0-0.042969-0.007812-0.085938-0.007812-0.125 0-0.17578 0.015625-1.1406 0.023438-1.5977l0.023437 0.26563c0.085937-1.2773 0.30859-2.1172 0.6875-3.2969l5.6875-16.059 18.418 0.1875 5.5312 16.387c0.35938 1.1836 0.57422 3.9453 0.64062 5.2344l0.027343 1.0859c0 0.11719-0.03125 0.22656-0.039062 0.34766z"/>
  <path d="m169.4 376h-20.719l23.941 123.13h-0.26172v94.715h18.941v-89.98h71.039v89.98h18.941v-104.19h-87.02z"/>
  <path d="m608.05 376h-20.719l-24.863 113.66h-87.02v104.19h18.945v-89.98h71.035v89.98h18.945v-94.715h-0.26562z"/>
  <path d="m429.41 390.21c0.085938 0 0.17578-2.1875 0.17578-3.3672 0-23.734-16.934-43.457-39.379-47.855v-10.34h-14.207v9.6484c-24.758 2.3711-44.117 23.141-44.117 48.52 0 1.1797 0.09375 3.3984 0.17578 3.3984z"/>
  <path d="m314.44 394.95h137.34v9.4727h-137.34z"/>
  <path d="m229.19 352.32 0.027344 0.25c0.003906-0.15234 0.011719-0.25 0.015625-0.25z"/>
  <path d="m537.67 352.32c0.003906 0 0.003906 0.097656 0.015625 0.25l0.023438-0.25z"/>
 </g>
</svg>
