<svg width="752" height="752" xmlns="http://www.w3.org/2000/svg" version="1.1">
 <title>mesa4.svg</title>

 <g>
  <title>Layer 1</title>
  <g stroke="null" id="svg_1">
   <path stroke="null" id="svg_2" d="m375.99845,510.78722c-40.20157,0 -73.09503,-9.50163 -73.09503,-21.19739l0,21.92743c0,11.69622 32.89346,21.19739 73.09503,21.19739s73.09503,-9.50163 73.09503,-21.19739l0,-21.92743c0,11.69622 -32.89346,21.19739 -73.09503,21.19739z"/>
   <path stroke="null" id="svg_3" d="m710.76717,333.16995c0,16.07939 -41.66011,28.5055 -93.55775,28.5055s-93.55775,-13.15522 -93.55775,-28.5055l0,13.8848c0,3.65359 2.19459,6.57761 5.84819,10.23121l0,152.03346c0,2.19459 1.45901,3.65359 3.65359,3.65359l7.30719,0c2.19459,0 3.65359,-1.45901 3.65359,-3.65359l0,-144.72072c10.23121,3.65359 24.12218,7.30719 40.20157,8.77221l0,120.60471c0,2.19459 1.45901,3.65359 3.65359,3.65359l7.30719,0c2.19459,0 3.65359,-1.45901 3.65359,-3.65359l0.00603,-119.14463c5.84819,0 12.4258,0.72951 18.27414,0.72951c8.77221,0 17.5441,-0.72951 25.58071,-1.45901l0,163.72644c0,2.19459 1.45901,3.65359 3.65359,3.65359l7.30719,0c2.19459,0 3.65359,-1.45901 3.65359,-3.65359l0.00602,-165.1927c14.62039,-2.19459 27.04542,-5.11861 36.54829,-9.50163l0,146.18543c0,2.19459 1.45901,3.65359 3.65359,3.65359l7.30719,0c2.19459,0 3.65359,-1.45901 3.65359,-3.65359l0,-156.42605c1.45901,-2.19459 2.19459,-4.38302 2.19459,-5.84819l-0.00156,-13.87484z"/>
   <path stroke="null" id="svg_4" d="m731.23298,143.85353c-1.45901,-1.45901 -3.65359,-2.92402 -5.84819,-2.92402l-109.64332,-7.30719c-3.65359,0 -6.57761,2.19459 -7.30719,5.11861c-8.77221,31.42875 -14.62039,63.59371 -18.27414,92.82925l-0.72951,3.64757c-2.92402,26.31693 -4.38302,49.70289 -5.11861,65.78228c-35.81825,4.38302 -60.67046,14.62039 -60.67046,27.04542c0,16.07939 41.66011,28.5055 93.55775,28.5055s93.55775,-13.15522 93.55775,-28.5055c0,-2.19459 -0.72951,-4.38302 -2.19459,-5.84819c0.72951,-27.04542 3.65359,-102.33057 23.39214,-171.76768c0.74157,-2.18858 0.74157,-5.11259 -0.72348,-6.57159l0.00187,-0.00448zm-124.258,72.36036l94.29396,9.50163c-0.72951,5.84819 -1.45901,11.69622 -2.19459,17.5441l-94.29396,-10.23121c0.73553,-5.84819 1.46505,-11.69622 2.19459,-16.81561l0,0.00108zm-7.30719,83.32639c0.72951,-13.15522 1.45901,-31.42875 3.65359,-51.89764l94.29396,9.50163c-2.19459,21.92743 -2.92402,40.93161 -3.65359,54.09239c-16.80943,-7.30719 -45.31957,-12.4258 -76.74986,-12.4258c-5.84819,0 -11.69622,0 -17.5441,0.72951l0,-0.00009z"/>
   <path stroke="null" id="svg_5" d="m41.22974,333.16995c0,16.07939 41.66011,28.5055 93.55775,28.5055s93.55775,-13.15522 93.55775,-28.5055l0,13.8848c0,3.65359 -2.19459,6.57761 -5.84819,10.23121l0,152.03346c0,2.19459 -1.45901,3.65359 -3.65359,3.65359l-7.30719,0c-2.19459,0 -3.65359,-1.45901 -3.65359,-3.65359l0,-144.72072c-10.23121,3.65359 -24.12218,7.30719 -40.20157,8.77221l0,120.60471c0,2.19459 -1.45901,3.65359 -3.65359,3.65359l-7.30719,0c-2.19459,0 -3.65359,-1.45901 -3.65359,-3.65359l-0.00603,-119.14463c-5.84819,0 -12.4258,0.72951 -18.27414,0.72951c-8.77221,0 -17.5441,-0.72951 -25.58071,-1.45901l0,163.72644c0,2.19459 -1.45901,3.65359 -3.65359,3.65359l-7.30719,0c-2.19459,0 -3.65359,-1.45901 -3.65359,-3.65359l-0.00602,-165.1927c-14.62039,-2.19459 -27.04542,-5.11861 -36.54829,-9.50163l0,146.18543c0,2.19459 -1.45901,3.65359 -3.65359,3.65359l-7.30719,0c-2.19459,0 -3.65359,-1.45901 -3.65359,-3.65359l0,-156.42605c-1.45901,-2.19459 -2.19459,-4.38302 -2.19459,-5.84819l0.00156,-13.87484z"/>
   <path stroke="null" id="svg_6" d="m20.03852,149.70311c19.73268,69.43557 22.65747,144.72072 23.39214,171.76768c-1.45901,2.19459 -2.19459,4.38302 -2.19459,5.84819c0,16.07939 41.66011,28.5055 93.55775,28.5055s93.55775,-13.15522 93.55775,-28.5055c0,-12.4258 -25.58071,-22.65747 -60.67046,-27.04542c-0.72951,-16.07939 -2.19459,-39.47153 -5.11861,-65.78228l-0.72951,-3.65359c-3.65359,-29.234 -9.50163,-61.39896 -18.27414,-92.82925c-0.72951,-3.65359 -4.38302,-5.84819 -7.30719,-5.11861l-109.64332,7.30719c-2.19459,0 -4.38302,1.45901 -5.84819,2.92402c-1.453,2.19459 -1.453,5.11861 -0.72348,6.58363l0.00187,-0.00154zm127.18124,83.32639l-94.28779,9.50163c-0.72951,-5.84819 -1.45901,-11.69622 -2.19459,-17.5441l94.29396,-9.50163c0.72951,5.84819 1.45901,11.69622 2.18858,17.5441l-0.00015,0zm-12.4258,65.78228c-32.15879,0 -59.93425,5.11861 -76.74986,12.4258c-0.72951,-13.15522 -1.45901,-32.16496 -3.65359,-54.09239l95.02246,-10.23121c2.19459,20.46889 2.92402,38.74304 3.65359,51.89764l-18.27414,0l0.00154,0.00015z"/>
   <path stroke="null" id="svg_7" d="m552.14946,263.00589c0,-24.85222 -90.6345,-38.74304 -176.15101,-38.74304s-176.15101,13.15522 -176.15101,38.74304c0,2.92402 1.45901,5.84819 3.65359,8.04263l0,9.50163c0,17.5441 63.59371,31.42875 146.18543,34.35354c12.4258,59.20421 5.84819,121.33321 1.45901,151.30342c-27.76929,2.92402 -48.23201,10.9668 -48.23201,19.73268c0,11.69622 32.89346,21.19739 73.09503,21.19739s73.09503,-9.50163 73.09503,-21.19739c0,-9.50163 -19.73268,-16.80943 -48.24436,-19.73268c-4.38302,-29.97021 -10.9668,-92.09921 1.45901,-151.30342c82.59789,-2.19459 146.18543,-16.80943 146.18543,-34.35354l0,-9.50163c2.19459,-2.92402 3.65359,-5.11861 3.65359,-8.04263l-0.00775,0zm-176.15101,-31.42875c104.52532,0 168.85061,18.27414 168.85061,31.42875c0,2.92402 -3.65359,5.84819 -10.23121,9.50163c-26.31693,12.4258 -87.70971,21.19739 -159.34312,21.19739c-71.63032,0 -133.02928,-8.77221 -159.34312,-21.19739c-6.57761,-2.92402 -10.23121,-6.57761 -10.23121,-9.50163c1.46505,-13.15522 65.78846,-31.42875 170.30143,-31.42875l-0.0034,0z"/>
  </g>
 </g>
</svg>